<svg width="210" height="40" viewBox="0 0 210 40" fill="none" xmlns="http://www.w3.org/2000/svg">
<g clip-path="url(#clip0_755_2155)">
<path d="M19.8537 39.9676C30.8186 39.9676 39.7074 31.0787 39.7074 20.1138C39.7074 9.14894 30.8186 0.260132 19.8537 0.260132C8.88881 0.260132 0 9.14894 0 20.1138C0 31.0787 8.88881 39.9676 19.8537 39.9676Z" fill="#3C80AD"/>
<path d="M13.4043 10.595C8.40176 10.6265 4.35144 14.6966 4.35144 19.7062C4.35144 24.7355 8.43305 28.8169 13.4628 28.8169C15.8221 28.8169 17.9739 27.9175 19.5928 26.443L19.5925 26.4426H19.5938C19.9259 26.1406 20.2352 25.8138 20.5191 25.4668H18.6529C18.4034 25.166 18.1768 24.8517 17.9733 24.5278H21.1922C21.3888 24.2149 21.5653 23.8897 21.7235 23.553H17.4425C17.2963 23.24 17.1695 22.921 17.0615 22.5959H22.1044C22.409 21.6875 22.5733 20.7155 22.5733 19.7062C22.5733 19.0359 22.5004 18.3836 22.3636 17.7545H16.7939C16.8634 17.4306 16.9501 17.1111 17.0534 16.7978H22.0988C21.9861 16.4635 21.855 16.1384 21.706 15.8222H17.4419C17.5956 15.4933 17.7699 15.1744 17.9643 14.8651H21.1813C20.9669 14.5237 20.7303 14.1976 20.4745 13.8903H18.6809C18.9585 13.5632 19.2634 13.2556 19.5943 12.9704C17.9759 11.4951 15.8239 10.5952 13.4633 10.5952C13.4428 10.595 13.4234 10.595 13.4043 10.595Z" fill="#931B1D"/>
<path d="M34.8119 19.7067C34.8128 24.7367 30.736 28.8154 25.7027 28.8169C20.6716 28.8185 16.5916 24.7413 16.5901 19.7105V19.7067C16.5885 14.6753 20.6667 10.5962 25.6987 10.595C30.7304 10.5931 34.8107 14.6706 34.812 19.7017C34.8119 19.7017 34.8119 19.704 34.8119 19.7067Z" fill="#F16622"/>
<path d="M34.8119 19.7063C34.8128 24.7365 30.736 28.816 25.7027 28.8169C20.6716 28.8187 16.5916 24.741 16.5901 19.7109V19.7063C16.5885 14.6756 20.6667 10.5962 25.6987 10.595C30.7304 10.5931 34.8107 14.6706 34.812 19.7015C34.8119 19.7016 34.8119 19.7044 34.8119 19.7063Z" fill="#F7981D"/>
<path d="M13.4043 10.5951C8.40176 10.6272 4.35144 14.6962 4.35144 19.706C4.35144 24.7354 8.43305 28.8169 13.4628 28.8169C15.8221 28.8169 17.9739 27.917 19.5928 26.4427L19.5925 26.4418H19.5938C19.9259 26.14 20.2352 25.8143 20.5191 25.466H18.6529C18.4034 25.1658 18.1768 24.8522 17.9733 24.5283H21.1922C21.3888 24.215 21.5653 23.889 21.7235 23.5526H17.4425C17.2963 23.2393 17.1695 22.9204 17.0615 22.5958H22.1044C22.409 21.6869 22.5733 20.7152 22.5733 19.706C22.5733 19.036 22.5004 18.3834 22.3636 17.7547H16.7939C16.8634 17.4311 16.9501 17.1109 17.0534 16.798H22.0988C21.9861 16.4635 21.855 16.1382 21.706 15.8219H17.4419C17.5956 15.4942 17.7699 15.1741 17.9643 14.8651H21.1813C20.9669 14.5241 20.7303 14.1982 20.4745 13.8896H18.6809C18.9585 13.5632 19.2634 13.2555 19.5943 12.9698C17.9759 11.4949 15.8239 10.595 13.4633 10.595C13.4428 10.5951 13.4234 10.5951 13.4043 10.5951Z" fill="#CB2026"/>
<path d="M16.7623 22.1312L16.8843 21.2977C16.8179 21.2977 16.72 21.3261 16.6337 21.3261C16.2957 21.3261 16.258 21.1448 16.28 21.0106L16.5531 19.3093H17.0671L17.1913 18.3868H16.7068L16.8056 17.8138H15.8336C15.8125 17.8353 15.2598 21.0393 15.2598 21.4287C15.2598 22.0064 15.5806 22.2637 16.0339 22.2599C16.3882 22.2566 16.6651 22.1578 16.7623 22.1312Z" fill="white"/>
<path d="M17.0706 20.5417C17.0706 21.9279 17.9765 22.2576 18.7488 22.2576C19.4619 22.2576 19.7752 22.0962 19.7752 22.0962L19.9467 21.15C19.9467 21.15 19.4046 21.3926 18.9148 21.3926C17.8715 21.3926 18.0543 20.6069 18.0543 20.6069H20.0295C20.0295 20.6069 20.1565 19.9708 20.1565 19.7118C20.1565 19.066 19.8373 18.2783 18.7708 18.2783C17.7934 18.2786 17.0706 19.3406 17.0706 20.5417ZM18.7749 19.1562C19.323 19.1562 19.2217 19.7783 19.2217 19.8286H18.143C18.1427 19.7645 18.2447 19.1562 18.7749 19.1562Z" fill="white"/>
<path d="M24.9278 22.1312L25.1019 21.0608C25.1019 21.0608 24.625 21.3034 24.2979 21.3034C23.6087 21.3034 23.3324 20.7709 23.3324 20.2012C23.3324 19.0427 23.9254 18.4054 24.5861 18.4054C25.0809 18.4054 25.4785 18.6865 25.4785 18.6865L25.6369 17.648C25.6369 17.648 25.0477 17.4067 24.5428 17.4067C23.4209 17.4067 22.329 18.388 22.329 20.2343C22.329 21.4565 22.9188 22.2653 24.0784 22.2653C24.406 22.2655 24.9278 22.1312 24.9278 22.1312Z" fill="white"/>
<path d="M11.4177 18.2935C10.7514 18.2935 10.2405 18.5092 10.2405 18.5092L10.0998 19.3543C10.0998 19.3543 10.5218 19.1819 11.1587 19.1819C11.5206 19.1819 11.7849 19.2227 11.7849 19.5198C11.7849 19.6999 11.7526 19.7665 11.7526 19.7665C11.7526 19.7665 11.4676 19.7422 11.3353 19.7422C10.4952 19.7422 9.61218 20.1041 9.61218 21.1962C9.61218 22.0559 10.191 22.2535 10.5501 22.2535C11.2359 22.2535 11.5306 21.8048 11.547 21.8028L11.515 22.178H12.3704L12.7523 19.4761C12.7523 18.3303 11.7617 18.2935 11.4177 18.2935ZM11.6263 20.4922C11.6448 20.6574 11.5234 21.4311 10.9383 21.4311C10.6366 21.4311 10.5579 21.1981 10.5579 21.0603C10.5579 20.7922 10.7025 20.4697 11.4149 20.4697C11.5802 20.4697 11.598 20.488 11.6263 20.4922Z" fill="white"/>
<path d="M13.6619 22.2329C13.8805 22.2329 15.1317 22.2895 15.1317 20.9863C15.1317 19.7679 13.9737 20.0083 13.9737 19.5187C13.9737 19.2759 14.1625 19.1982 14.5074 19.1982C14.6444 19.1982 15.1715 19.2427 15.1715 19.2427L15.2945 18.3762C15.2945 18.3762 14.9533 18.2997 14.3983 18.2997C13.6786 18.2997 12.9495 18.5883 12.9495 19.5797C12.9495 20.7037 14.1662 20.59 14.1662 21.0631C14.1662 21.3789 13.826 21.4048 13.5638 21.4048C13.111 21.4048 12.7031 21.2478 12.7011 21.2551L12.5717 22.1119C12.5943 22.1199 12.8464 22.2329 13.6619 22.2329Z" fill="white"/>
<path d="M32.977 17.5161L32.7678 18.8287C32.7678 18.8287 32.4019 18.3193 31.8297 18.3193C30.9388 18.3193 30.1969 19.4026 30.1969 20.6479C30.1969 21.4517 30.5923 22.2384 31.402 22.2384C31.9843 22.2384 32.3063 21.8288 32.3063 21.8288L32.264 22.1784H33.2092L33.952 17.514L32.977 17.5161ZM32.5261 20.0765C32.5261 20.5942 32.2715 21.2855 31.7449 21.2855C31.395 21.2855 31.2316 20.9892 31.2316 20.5243C31.2316 19.7644 31.5697 19.2616 31.9961 19.2616C32.3464 19.2617 32.5261 19.5049 32.5261 20.0765Z" fill="white"/>
<path d="M6.15558 22.1825L6.74791 18.661L6.83415 22.1825H7.50391L8.75285 18.661L8.1994 22.1825H9.19408L9.9608 17.5131H8.42215L7.46419 20.3776L7.41432 17.5131H5.99661L5.21924 22.1825H6.15558Z" fill="white"/>
<path d="M21.1282 22.189C21.4111 20.566 21.4634 19.2475 22.1389 19.4878C22.2572 18.86 22.371 18.6171 22.4995 18.3509C22.4995 18.3509 22.4393 18.338 22.312 18.338C21.8777 18.338 21.555 18.938 21.555 18.938L21.6409 18.3872H20.7359L20.1304 22.189H21.1282Z" fill="white"/>
<path d="M27.1698 18.2935C26.5035 18.2935 25.993 18.5092 25.993 18.5092L25.8525 19.3543C25.8525 19.3543 26.2736 19.1819 26.9111 19.1819C27.2726 19.1819 27.5376 19.2227 27.5376 19.5198C27.5376 19.6999 27.505 19.7665 27.505 19.7665C27.505 19.7665 27.22 19.7422 27.0867 19.7422C26.2463 19.7422 25.3643 20.1041 25.3643 21.1962C25.3643 22.0559 25.9434 22.2535 26.3022 22.2535C26.988 22.2535 27.283 21.8048 27.2987 21.8028L27.267 22.178H28.1231L28.5047 19.4761C28.5051 18.3303 27.5148 18.2935 27.1698 18.2935ZM27.3787 20.4922C27.3972 20.6574 27.2764 21.4311 26.6904 21.4311C26.389 21.4311 26.3109 21.1981 26.3109 21.0603C26.3109 20.7922 26.4555 20.4697 27.1666 20.4697C27.3329 20.4697 27.3502 20.488 27.3787 20.4922Z" fill="white"/>
<path d="M29.2861 22.189C29.5693 20.566 29.6217 19.2475 30.2971 19.4878C30.4153 18.86 30.5291 18.6171 30.6584 18.3509C30.6584 18.3509 30.5972 18.338 30.4705 18.338C30.035 18.338 29.7133 18.938 29.7133 18.938L29.7999 18.3872H28.8943L28.2885 22.1888H29.2862L29.2861 22.189Z" fill="white"/>
</g>
<g clip-path="url(#clip1_755_2155)">
<path d="M69.9489 39.9676C80.9138 39.9676 89.8026 31.0787 89.8026 20.1138C89.8026 9.14894 80.9138 0.260132 69.9489 0.260132C58.984 0.260132 50.0952 9.14894 50.0952 20.1138C50.0952 31.0787 58.984 39.9676 69.9489 39.9676Z" fill="#F3F2F2"/>
<path d="M64.7616 23.9826L66.2756 15.1423H68.7266L67.2128 23.9826H64.7616Z" fill="#293688"/>
<path d="M75.9385 15.3709C75.4527 15.1918 74.6917 14.9999 73.7413 14.9999C71.3189 14.9999 69.6125 16.1992 69.5978 17.9174C69.5844 19.1873 70.8159 19.8957 71.7463 20.3189C72.7003 20.7514 73.0212 21.0289 73.0165 21.4153C73.0106 22.0079 72.2542 22.2788 71.5495 22.2788C70.5685 22.2785 70.0471 22.1447 69.242 21.8148L68.9261 21.6739L68.5819 23.6529C69.1546 23.8998 70.2136 24.1139 71.3129 24.1247C73.8893 24.1241 75.5626 22.9397 75.5814 21.1043C75.5907 20.0988 74.9375 19.3336 73.5232 18.7024C72.6662 18.294 72.1414 18.0212 72.1471 17.6067C72.1471 17.2394 72.5916 16.8465 73.551 16.8465C74.3526 16.8341 74.9334 17.0059 75.3861 17.185L75.6054 17.287L75.9385 15.3709Z" fill="#293688"/>
<path d="M80.1175 15.1423C79.5302 15.1423 79.1059 15.3197 78.8479 15.8952L75.2152 23.9829H77.8104L78.3149 22.6282H81.4156L81.7036 23.9829H84.0107L81.9923 15.1426H80.1176L80.1175 15.1423ZM79.0035 20.8593C79.206 20.3503 79.9798 18.3885 79.9798 18.3885C79.9657 18.4117 80.1812 17.8769 80.305 17.5451L80.4709 18.3069C80.4709 18.3069 80.9397 20.4172 81.0382 20.8596H79.0035V20.8593Z" fill="#293688"/>
<path d="M60.2916 21.2022L60.0757 19.9903C59.6284 18.5776 58.24 17.049 56.6842 16.2832L58.8498 23.9826H61.4456L65.3385 15.1423H62.7433L60.2916 21.2022Z" fill="#293688"/>
<path d="M54.0155 14.9777V15.1223C57.1019 15.8638 59.2446 17.7382 60.0929 19.8915L59.201 15.7424C59.0521 15.1753 58.601 14.9974 58.0671 14.9777L54.0155 14.9777Z" fill="#F7981D"/>
<path d="M69.9459 39.964C77.6089 39.964 84.2533 35.6254 87.5628 29.2756H52.3292C55.639 35.6254 62.2832 39.964 69.9459 39.964Z" fill="#F7981D"/>
<path d="M69.9486 0.260132C62.4314 0.260132 55.8931 4.43926 52.543 10.5949H87.355C84.0044 4.43959 77.4659 0.260132 69.9486 0.260132Z" fill="#293688"/>
</g>
<g clip-path="url(#clip2_755_2155)">
<path d="M120.065 39.9676C130.831 39.9676 139.558 31.0787 139.558 20.1138C139.558 9.14894 130.831 0.260132 120.065 0.260132C109.299 0.260132 100.572 9.14894 100.572 20.1138C100.572 31.0787 109.299 39.9676 120.065 39.9676Z" fill="#F3F2F2"/>
<path d="M129.045 16.9292C128.228 16.9292 127.582 17.1487 127.087 17.249L126.936 18.5072C127.183 18.3869 127.962 18.1679 128.608 18.1472C129.255 18.1274 129.634 18.2672 129.501 18.8265C127.582 18.8265 126.289 19.2254 126.023 20.4837C125.643 22.6406 127.981 22.5809 128.912 21.6421L128.798 22.1609H130.509L131.25 18.7257C131.553 17.2684 130.242 16.9094 129.045 16.9292ZM129.159 20.4438C129.064 20.903 128.703 21.1028 128.266 21.1232C127.886 21.143 127.544 20.8028 127.791 20.4036C127.981 20.0644 128.514 19.9846 128.836 19.9846C128.969 19.9846 129.122 19.9846 129.255 19.9846C129.216 20.1443 129.197 20.284 129.159 20.4438Z" fill="#1A80AD"/>
<path d="M132.713 15.5712L131.298 22.1613H133.035L134.468 15.5712H132.713Z" fill="#1A80AD"/>
<path d="M124.73 15.5912H121.549L120.14 22.1612H121.987L122.464 19.9847H123.778C125.073 19.9847 126.14 19.186 126.425 17.8278C126.749 16.2901 125.645 15.5912 124.73 15.5912ZM124.674 17.8278C124.559 18.3269 124.064 18.726 123.587 18.726H122.73L123.111 16.9289H124.026C124.502 16.9292 124.788 17.3284 124.674 17.8278Z" fill="#1A80AD"/>
<path d="M112.362 16.6698C111.558 16.6698 110.923 16.8912 110.456 16.9923L110.307 18.2612C110.531 18.1399 111.297 17.9191 111.932 17.8981C112.568 17.8782 112.942 18.0191 112.829 18.5834C110.942 18.5834 109.672 18.9857 109.41 20.2549C109.036 22.4305 111.334 22.3703 112.231 21.4234L112.119 21.9467H113.82L114.548 18.4817C114.847 17.012 113.539 16.6499 112.362 16.6698ZM112.493 20.2149C112.399 20.6781 112.025 20.8796 111.596 20.9002C111.222 20.9202 110.905 20.577 111.148 20.1744C111.334 19.8322 111.858 19.7517 112.157 19.7517C112.306 19.7517 112.437 19.7517 112.587 19.7517C112.548 19.9128 112.511 20.0537 112.493 20.2149Z" fill="#1A5B80"/>
<path d="M115.289 16.7655H116.989L117.264 19.8516L118.927 16.7655H120.682L116.642 24.1514H114.741L115.983 21.9803L115.289 16.7655Z" fill="#1A5B80"/>
<path d="M108.133 15.3202H104.959L103.552 21.9473H105.415L105.871 19.7518H107.201C108.475 19.7518 109.539 18.9462 109.825 17.5762C110.148 16.0251 109.065 15.3202 108.133 15.3202ZM108.076 17.5762C107.962 18.0797 107.487 18.4823 107.012 18.4823H106.138L106.537 16.6695H107.449C107.905 16.6698 108.209 17.0725 108.076 17.5762Z" fill="#1A5B80"/>
<path d="M134.712 16.1594V15.3753H134.427V15.2701H135.113V15.3753H134.827V16.1594H134.712Z" fill="#1A5B80"/>
<path d="M135.227 16.1594V15.2701H135.398L135.604 15.8993C135.623 15.9579 135.636 16.0013 135.645 16.0301C135.655 15.9981 135.67 15.9506 135.691 15.8882L135.899 15.2701H136.053V16.1594H135.943V15.4149L135.69 16.1594H135.588L135.337 15.4026V16.1594H135.227Z" fill="#1A5B80"/>
</g>
<g clip-path="url(#clip3_755_2155)">
<path d="M204.23 3.02246H155.776C152.596 3.02246 150.018 5.57309 150.018 8.71945V30.2865C150.018 33.4329 152.596 35.9835 155.776 35.9835H204.23C207.41 35.9835 209.988 33.4329 209.988 30.2865V8.71945C209.988 5.57309 207.41 3.02246 204.23 3.02246Z" fill="#FFB3C7"/>
<path fill-rule="evenodd" clip-rule="evenodd" d="M204.374 22.3691C203.589 22.3691 202.953 23.004 202.953 23.7873C202.953 24.5705 203.589 25.2056 204.374 25.2056C205.158 25.2056 205.794 24.5705 205.794 23.7873C205.794 23.0039 205.158 22.3691 204.374 22.3691ZM199.699 21.2726C199.699 20.2002 198.781 19.331 197.649 19.331C196.516 19.331 195.598 20.2002 195.598 21.2726C195.598 22.345 196.516 23.2144 197.649 23.2144C198.781 23.2144 199.699 22.345 199.699 21.2726ZM199.707 17.4989H201.97V25.046H199.707V24.5636C199.068 24.999 198.296 25.2549 197.463 25.2549C195.26 25.2549 193.474 23.472 193.474 21.2725C193.474 19.0731 195.26 17.2903 197.463 17.2903C198.296 17.2903 199.068 17.5462 199.707 17.9817V17.4989V17.4989ZM181.593 18.482V17.499H179.276V25.0459H181.599V21.5224C181.599 20.3336 182.889 19.6946 183.785 19.6946C183.794 19.6946 183.803 19.6955 183.812 19.6956V17.4996C182.893 17.4996 182.047 17.8925 181.593 18.4821L181.593 18.482ZM175.821 21.2726C175.821 20.2002 174.902 19.3311 173.77 19.3311C172.637 19.3311 171.719 20.2002 171.719 21.2726C171.719 22.345 172.637 23.2144 173.77 23.2144C174.902 23.2144 175.821 22.345 175.821 21.2726ZM175.828 17.499H178.092V25.046H175.828V24.5636C175.189 24.999 174.417 25.2549 173.584 25.2549C171.381 25.2549 169.595 23.472 169.595 21.2726C169.595 19.0731 171.381 17.2903 173.584 17.2903C174.417 17.2903 175.189 17.5462 175.828 17.9817V17.4989V17.499ZM189.452 17.296C188.548 17.296 187.692 17.5762 187.12 18.3493V17.4994H184.866V25.046H187.148V21.08C187.148 19.9324 187.919 19.3704 188.847 19.3704C189.842 19.3704 190.414 19.9636 190.414 21.0645V25.046H192.674V20.2468C192.674 18.4905 191.276 17.2961 189.452 17.2961V17.296ZM166.298 25.046H168.667V14.1358H166.298V25.046ZM155.891 25.0491H158.4V14.1338H155.891V25.0491ZM164.666 14.1338C164.666 16.4969 163.743 18.6951 162.099 20.329L165.567 25.0495H162.469L158.7 19.9194L159.673 19.1923C161.286 17.9861 162.211 16.1424 162.211 14.1338H164.666L164.666 14.1338Z" fill="#0A0B09"/>
</g>
<defs>
<clipPath id="clip0_755_2155">
<rect width="40" height="40" fill="white"/>
</clipPath>
<clipPath id="clip1_755_2155">
<rect width="40" height="40" fill="white" transform="translate(50)"/>
</clipPath>
<clipPath id="clip2_755_2155">
<rect width="40" height="40" fill="white" transform="translate(100)"/>
</clipPath>
<clipPath id="clip3_755_2155">
<rect width="60" height="33" fill="white" transform="translate(150 3)"/>
</clipPath>
</defs>
</svg>
