<svg width="52" height="54" viewBox="0 0 52 54" fill="none" xmlns="http://www.w3.org/2000/svg">
<path d="M25.5785 26.4149C22.1247 23.8543 19.0039 26.3216 13.7432 26.7328C6.10828 27.4044 4.10288 31.709 6.26112 34.6324C8.41937 37.5559 13.0953 36.2842 15.9826 38.8517C18.9783 41.1866 18.9135 46.1616 22.2283 47.5093C25.4889 48.9733 29.1639 45.9208 27.9804 38.1848C27.1352 33.0475 28.7551 29.2681 25.5785 26.4149Z" fill="#FFF1A6"/>
<path d="M19.1647 16.5925C18.8026 20.823 16.5294 24.2637 14.106 24.2855C11.5735 24.2536 9.82695 20.8081 10.189 16.5775C10.5511 12.3469 12.8244 8.90632 15.2478 8.8845C17.7803 8.91641 19.5268 12.3619 19.1647 16.5925Z" fill="#FFF1A6"/>
<path d="M35.6976 30.0807C31.8121 31.1931 29.3153 34.1432 29.9793 36.6329C30.6434 39.1227 34.285 40.3409 38.1705 39.2286C42.056 38.1163 44.5529 35.1662 43.8888 32.6764C43.1107 30.1304 39.4691 28.9122 35.6976 30.0807Z" fill="#FFF1A6"/>
<path d="M31.5654 16.5349C29.5627 20.5347 25.9221 22.6693 23.6007 21.3741C21.2794 20.0788 21.0703 15.7444 23.073 11.7447C25.0757 7.74487 28.7164 5.61025 31.0377 6.90551C33.359 8.20077 33.5681 12.5351 31.5654 16.5349Z" fill="#FFF1A6"/>
<path d="M33.425 17.8667C30.3697 20.6425 29.4088 24.4507 31.0846 26.3816C32.8707 28.3669 36.6787 27.7576 39.6817 25.0941C42.737 22.3183 43.6978 18.5102 42.022 16.5792C40.3985 14.536 36.4803 15.0909 33.425 17.8667Z" fill="#FFF1A6"/>
</svg>
