<svg width="70" height="71" viewBox="0 0 70 71" fill="none" xmlns="http://www.w3.org/2000/svg">
<rect x="1" y="1.95777" width="68" height="68" fill="#1D1D1B"/>
<path d="M7.96667 38.579V38.1631H9.34766V25.632H7.96667V25.1947H12.9153V26.2309C13.1005 25.9768 13.9752 24.9425 15.8152 24.9425C18.5771 24.9425 20.3048 27.0386 20.3048 30.2142C20.3048 33.3898 18.4865 35.738 15.7462 35.738C13.9515 35.738 13.0985 34.7492 12.9153 34.495V38.1631H14.251V38.579H7.96667ZM12.9153 32.7457C12.9153 34.2191 13.6285 34.7709 14.4815 34.7709C15.9787 34.7709 16.6445 33.1139 16.6445 30.3285C16.6445 27.5429 15.9767 25.9078 14.5031 25.9078C13.6285 25.9078 12.9153 26.5067 12.9153 28.0019V32.7438V32.7457Z" fill="#FFDB46"/>
<path d="M31.5397 32.5152C31.3092 34.426 29.7903 35.9685 26.8905 35.9685C23.4154 35.9685 21.3193 33.7581 21.3193 30.5353C21.3193 27.3124 23.506 24.9405 26.8669 24.9405C29.9755 24.9405 31.7248 26.9657 31.7012 29.9601H24.9323V30.3048C24.9323 32.9525 25.7617 34.8397 28.1789 34.8397C29.6977 34.8397 30.7813 33.965 31.0098 32.5152H31.5397ZM28.2025 29.5227C28.2025 26.6229 27.7652 25.4251 26.7526 25.4251C25.74 25.4251 25.0269 26.8297 24.9343 29.5227H28.2025Z" fill="#FFDB46"/>
<path d="M39.9634 32.9525C39.9634 34.6328 38.5823 35.9685 36.5574 35.9685C34.0711 35.9685 32.9205 34.5877 32.9205 32.5152V25.632H31.792V25.1947H32.9205V23.2838L36.4665 22.1097V25.1947H39.666V25.632H36.4665V32.5842C36.4665 33.8508 36.9275 34.5641 38.0091 34.5641C38.9074 34.5641 39.4829 33.8272 39.4829 32.9525H39.9653H39.9634Z" fill="#FFDB46"/>
<path d="M48.8735 28.9239C48.5979 26.8514 47.5164 25.4941 45.5129 25.4941C44.2463 25.4941 43.5784 26.1383 43.5784 27.0366C43.5784 29.7986 49.5868 28.325 49.5868 32.5152C49.5868 34.426 48.137 35.9685 44.776 35.9685C42.7038 35.9685 41.9215 35.2319 41.1158 35.2319C40.8853 35.2319 40.6548 35.3934 40.6548 35.8543H40.2411V31.7804H40.6094C40.9326 34.0145 42.1974 35.4861 44.3387 35.4861C45.6053 35.4861 46.3422 34.8419 46.3422 33.8745C46.3422 31.1362 40.3811 32.2867 40.3811 28.4196C40.3811 26.554 41.7165 24.9662 45.0084 24.9662C46.8959 24.9662 47.7015 25.6104 48.4148 25.6104C48.6452 25.6104 48.8521 25.4724 48.8521 25.0351H49.2658V28.9259H48.8735V28.9239Z" fill="#FFDB46"/>
<path d="M56.6196 40.8127V40.7616H56.8009V38.9905H56.7322C56.4307 38.9905 56.3125 39.1838 56.2671 39.5029H56.2138V38.8407H56.2611C56.2592 38.9098 56.2848 38.9432 56.338 38.9432H57.7683C57.8216 38.9432 57.849 38.9116 57.8452 38.8407H57.8922V39.5029H57.8393C57.7939 39.1816 57.6756 38.9905 57.3742 38.9905H57.3054V40.7616H57.4864V40.8127H56.6177H56.6196Z" fill="#FFDB46"/>
<path d="M59.2635 40.8127V40.7616H59.4426V39.233C59.2988 39.7589 59.1494 40.2886 59.0075 40.8127H58.6862L58.2116 39.221V40.4561C58.2116 40.6749 58.2882 40.7635 58.379 40.7635H58.4084V40.8149H57.9496V40.7635H57.9789C58.0697 40.7635 58.1463 40.6749 58.1463 40.4561V38.9965H57.9672V38.9432H58.6467L59.0585 40.3813L59.4546 38.9432H60.1085V38.9965H59.9294V40.7635H60.1085V40.8149H59.2635V40.8127Z" fill="#FFDB46"/>
<path d="M32.253 47.0499C32.253 47.6251 31.9534 48.0861 31.4708 48.0861C30.9881 48.0861 30.8266 47.7178 30.8266 47.0736V42.3316C30.8266 39.8456 29.1462 38.5099 26.1065 38.5099C23.0668 38.5099 21.5262 39.9143 21.5262 41.5023C21.5262 42.4911 22.2866 43.228 23.2992 43.228C24.4044 43.228 25.2337 42.5365 25.2337 41.6167C25.2337 40.6966 24.497 40.1666 23.6459 40.1666C23.4844 40.1666 23.4154 40.0742 23.4154 40.0052C23.4154 39.5442 24.1975 39.0378 25.3263 39.0378C26.6836 39.0378 27.4677 39.7056 27.4677 40.994C27.4677 45.206 20.9766 42.8815 20.9766 46.8863C20.9766 48.5429 22.3812 49.534 24.1542 49.534C26.3862 49.534 27.3318 47.9224 27.515 47.6468C27.8144 48.8444 28.7344 49.5122 30.139 49.5122C31.9809 49.5122 32.6705 48.2002 32.6705 47.0499H32.2568H32.253ZM27.3259 46.6362C27.3259 47.6251 26.727 48.2711 25.8523 48.2711C25.1156 48.2711 24.4714 47.7197 24.4714 46.6145C24.4714 44.3114 26.1971 44.1046 27.3259 42.9543V46.6381V46.6362Z" fill="#FFDB46"/>
<path d="M48.2511 40.5803C48.2511 39.682 48.9189 39.0378 50.1856 39.0378C52.1891 39.0378 53.2706 40.3952 53.5465 42.4678H53.9384V38.5768H53.5248C53.5248 39.0141 53.3179 39.1522 53.0874 39.1522C52.3745 39.1522 51.5685 38.508 49.6814 38.508C46.3895 38.508 45.0538 40.0957 45.0538 41.9614C45.0538 45.8284 51.0152 44.6778 51.0152 47.4163C51.0152 48.3834 50.2783 49.0276 49.0116 49.0276C46.8703 49.0276 45.6056 47.5541 45.2824 45.322H44.9141V49.3962H45.3278C45.3278 48.9352 45.5583 48.7734 45.7888 48.7734C46.5944 48.7734 47.3764 49.5103 49.449 49.5103C52.8096 49.5103 54.2598 47.9678 54.2598 46.057C54.2598 41.8668 48.2511 43.3403 48.2511 40.5784V40.5803Z" fill="#FFDB46"/>
<path d="M19.3848 48.8444V37.8065V38.2224V35.7834L15.7698 36.9576V38.2224V37.8065V48.8444H14.3672V49.2817H20.7204V48.8444H19.3848Z" fill="#FFDB46"/>
<path d="M39.5279 38.4863C37.7098 38.4863 36.8115 39.5224 36.6283 39.7747V36.9576L33.1746 35.7834V46.8431C33.1746 47.6941 33.0132 48.2693 32.7827 49.0298L32.4832 49.9281H32.9659C33.3796 48.5471 33.7028 48.1315 34.2325 48.1315C35.4304 48.1315 36.0273 49.4671 38.3067 49.4671C41.76 49.4671 44.0158 47.0499 44.0158 43.689C44.0158 40.6039 42.3352 38.4863 39.526 38.4863H39.5279ZM38.2159 48.9371C37.3649 48.9371 36.6283 48.3856 36.6283 46.8645V41.5477C36.6283 40.0506 37.3412 39.4751 38.2159 39.4751C39.6897 39.4751 40.3575 41.2699 40.3575 44.0336C40.3575 46.7977 39.6897 48.9371 38.2159 48.9371Z" fill="#FFDB46"/>
<path d="M58.1268 25.1947V25.5867H58.4951C59.7147 25.5867 59.9216 26.554 59.4842 27.6355L57.6894 32.1941L54.8585 25.634H56.2396V25.1966H49.7482V25.634H51.1057L55.032 33.9751L55.1619 34.2507L55.5068 34.9954L55.5166 35.015L55.6563 35.3205L56.1274 36.327C55.7449 37.4145 55.2054 38.0016 54.3897 38.1533C53.6194 38.2971 53.2176 38.0212 53.1231 37.6412C53.1565 37.5643 53.2608 37.4975 53.4422 37.4637C54.2339 37.3161 54.7699 36.678 54.6104 35.8168C54.4546 34.9797 53.8281 34.5108 52.8333 34.6959C51.9056 34.8693 51.3166 35.7282 51.4976 36.7013C51.742 38.0133 52.7743 38.8981 54.4486 38.5869C55.5459 38.3819 56.2119 37.6018 56.6691 36.1302L56.8895 35.5706L57.26 34.6388L59.9903 27.7517C60.4967 26.4397 61.1645 25.5887 62.1319 25.5887H62.4312V25.1966H58.1268V25.1947Z" fill="#FFDB46"/>
<rect x="1" y="1.95777" width="68" height="68" stroke="#FFDB46" stroke-width="2"/>
</svg>
