<svg width="170" height="94" viewBox="0 0 170 94" fill="none" xmlns="http://www.w3.org/2000/svg">
<path d="M166.451 0H3.54921C1.58903 0 0 1.31796 0 2.94376V91.0562C0 92.682 1.58903 94 3.54921 94H166.451C168.411 94 170 92.682 170 91.0562V2.94376C170 1.31796 168.411 0 166.451 0Z" fill="white"/>
<path d="M5.08128 0.000244141H165.772C167.964 0.000244141 168.354 0.33351 169.147 1.00024C169.94 1.66698 170 2.61255 170 3.55545L169.974 32.0002H0V3.50024C0 2.55734 0 2.00024 1.18285 1.00024C2.36569 0.000244141 3.95987 0.000244141 5.08128 0.000244141Z" fill="#006ED9"/>
<path d="M29.2108 8.69127C27.3823 8.65588 25.6111 9.3301 24.2688 10.5724C22.9266 11.8148 22.1177 13.5287 22.0119 15.3545C21.906 17.1804 22.5114 18.9763 23.7011 20.3654C24.8907 21.7545 26.5722 22.6289 28.3926 22.805C30.213 22.9812 32.0309 22.4455 33.4649 21.3103C34.8988 20.1751 35.8374 18.5286 36.0836 16.7163C36.3298 14.904 35.8645 13.0668 34.7854 11.5901C33.7063 10.1135 32.0973 9.11215 30.2959 8.79625C29.9375 8.7331 29.5747 8.69801 29.2108 8.69127ZM29.0639 20.0313C28.2223 20.0321 27.3994 19.7833 26.6992 19.3164C25.9991 18.8495 25.4531 18.1855 25.1303 17.4083C24.8075 16.6311 24.7224 15.7757 24.8858 14.9501C25.0492 14.1246 25.4538 13.366 26.0483 12.7704C26.6428 12.1747 27.4006 11.7688 28.2258 11.6038C29.051 11.4388 29.9067 11.5223 30.6845 11.8436C31.4623 12.1649 32.1273 12.7097 32.5955 13.409C33.0638 14.1083 33.3141 14.9307 33.3148 15.7723C33.3148 15.8593 33.3149 15.9462 33.3069 16.0332C33.2336 17.1119 32.7559 18.1231 31.9692 18.8647C31.1825 19.6063 30.1449 20.0236 29.0639 20.0332V20.0313Z" fill="white"/>
<path d="M46.6278 13.6364C46.2813 13.438 45.89 13.3309 45.4908 13.3254C45.0746 13.3202 44.6654 13.4321 44.3098 13.6484C43.9549 13.8648 43.6653 14.1735 43.4718 14.5414C43.2705 14.9334 43.1655 15.3677 43.1655 15.8084C43.1655 16.2491 43.2705 16.6834 43.4718 17.0754C43.6657 17.443 43.9552 17.7515 44.3098 17.9684C44.6652 18.1853 45.0744 18.298 45.4908 18.2934C45.8728 18.2862 46.2485 18.1943 46.5907 18.0244C46.9751 17.8446 47.3232 17.5958 47.6178 17.2904L48.9278 18.6984C48.4563 19.1925 47.8927 19.5896 47.2688 19.8674C46.6069 20.1774 45.8806 20.3252 45.1503 20.2986C44.4199 20.272 43.7063 20.0717 43.0688 19.7144C42.3964 19.336 41.8385 18.7832 41.4538 18.1144C41.0583 17.4221 40.8552 16.6366 40.8658 15.8394C40.8534 15.0564 41.0562 14.285 41.4521 13.6093C41.8479 12.9335 42.4217 12.3794 43.1108 12.0074C43.757 11.6624 44.4726 11.4673 45.2046 11.4366C45.9365 11.406 46.666 11.5406 47.3388 11.8304C47.9335 12.077 48.4708 12.4441 48.9168 12.9084L47.6167 14.4744C47.3482 14.1301 47.0116 13.8448 46.6278 13.6364V13.6364Z" fill="white"/>
<path d="M49.8838 11.5664H56.6517V13.3534H52.1227V14.9534H56.2108V16.7284L52.1227 16.7404V18.3554H56.7737V20.1424H49.8838V11.5664Z" fill="white"/>
<path d="M63.3128 20.1455L62.0598 17.7725H60.3998V20.1475H58.1598V11.5684H62.0158C62.9597 11.5098 63.8936 11.7896 64.6498 12.3574C64.9645 12.632 65.2124 12.9749 65.3746 13.3598C65.5368 13.7446 65.609 14.1614 65.5858 14.5785C65.601 15.1596 65.4659 15.7348 65.1938 16.2484C64.9322 16.7204 64.5356 17.1035 64.0548 17.3485L65.8418 20.1485L63.3128 20.1455ZM60.4008 15.9845H62.0278C62.4117 16.0094 62.7905 15.8866 63.0868 15.6414C63.2164 15.5126 63.3169 15.3575 63.3814 15.1865C63.4459 15.0156 63.473 14.8328 63.4608 14.6505C63.4715 14.4732 63.4436 14.2958 63.379 14.1304C63.3145 13.965 63.2147 13.8156 63.0868 13.6925C62.7886 13.4514 62.4105 13.3314 62.0278 13.3565H60.3998L60.4008 15.9845Z" fill="white"/>
<path d="M66.2817 11.5664H73.6367V13.4144H71.0668V20.1454H68.8278V13.4144H66.2827L66.2817 11.5664Z" fill="white"/>
<path d="M74.5479 11.5664H76.7869V20.1454H74.5479V11.5664Z" fill="white"/>
<path d="M78.4558 11.5664H84.8768V13.3534H80.6948V15.2624H84.5378V17.0494H80.6948V20.1494H78.4558V11.5664Z" fill="white"/>
<path d="M85.8898 11.5664H88.1318V20.1454H85.8928L85.8898 11.5664Z" fill="white"/>
<path d="M89.7987 11.5664H96.5667V13.3534H92.0377V14.9534H96.1248V16.7284L92.0377 16.7404V18.3554H96.6887V20.1424H89.7987V11.5664Z" fill="white"/>
<path d="M104.14 12.1053C104.809 12.4456 105.367 12.9698 105.749 13.6163C106.127 14.3011 106.325 15.0709 106.324 15.8531C106.323 16.6354 106.123 17.4046 105.743 18.0884C105.355 18.7421 104.786 19.2691 104.104 19.6053C103.348 19.9765 102.515 20.1613 101.674 20.1443H98.0638V11.5654H101.764C102.588 11.5498 103.403 11.7351 104.14 12.1053ZM102.971 18.0284C103.31 17.82 103.581 17.5187 103.754 17.1603C103.947 16.7599 104.043 16.3198 104.035 15.8754C104.045 15.4238 103.941 14.977 103.735 14.5754C103.547 14.2121 103.261 13.909 102.909 13.7004C102.545 13.4892 102.13 13.3816 101.709 13.3893H100.302V18.3303H101.823C102.228 18.3394 102.627 18.2348 102.975 18.0284H102.971Z" fill="white"/>
<path d="M114.617 13.4893C114.199 13.3376 113.761 13.2512 113.317 13.2333C113.088 13.2209 112.861 13.274 112.662 13.3864C112.585 13.4327 112.523 13.4986 112.481 13.5772C112.439 13.6558 112.418 13.7442 112.422 13.8333C112.42 13.9222 112.438 14.0105 112.474 14.0919C112.51 14.1732 112.563 14.2457 112.63 14.3043C112.78 14.4374 112.955 14.5408 113.144 14.6093C113.348 14.6893 113.65 14.7894 114.05 14.9094C114.552 15.0481 115.044 15.2198 115.524 15.4233C115.918 15.5986 116.262 15.8699 116.524 16.2123C116.817 16.6144 116.964 17.1044 116.941 17.6013C116.955 18.1255 116.796 18.6397 116.487 19.0634C116.168 19.4798 115.737 19.7963 115.245 19.9753C114.684 20.1844 114.089 20.2878 113.49 20.2803C112.766 20.2775 112.047 20.151 111.366 19.9063C110.697 19.6806 110.075 19.3346 109.531 18.8853L110.399 17.1343C110.855 17.5318 111.374 17.8502 111.935 18.0764C112.43 18.2995 112.964 18.4245 113.507 18.4443C113.782 18.4588 114.055 18.3953 114.296 18.2614C114.387 18.2054 114.462 18.1259 114.513 18.0311C114.563 17.9363 114.588 17.8297 114.583 17.7224C114.585 17.63 114.567 17.5383 114.53 17.4536C114.493 17.369 114.438 17.2934 114.369 17.2324C114.212 17.0938 114.029 16.988 113.831 16.9213C113.615 16.8413 113.31 16.7504 112.919 16.6464C112.423 16.5128 111.936 16.3457 111.463 16.1464C111.077 15.9776 110.739 15.7169 110.478 15.3873C110.189 14.9975 110.044 14.5198 110.068 14.0353C110.057 13.5356 110.205 13.0454 110.491 12.6353C110.794 12.219 111.211 11.8986 111.691 11.7123C112.263 11.486 112.875 11.3755 113.491 11.3873C114.112 11.3871 114.73 11.4757 115.327 11.6503C115.888 11.8058 116.424 12.0416 116.918 12.3503L116.073 14.1373C115.612 13.8702 115.124 13.6529 114.617 13.4893Z" fill="white"/>
<path d="M118.083 11.5664H120.322V15.0664H123.785V11.5664H126.024V20.1454H123.785V16.8534H120.328V20.1454H118.089L118.083 11.5664Z" fill="white"/>
<path d="M134.162 12.0073C134.858 12.374 135.438 12.926 135.84 13.6024C136.241 14.2787 136.448 15.0529 136.437 15.8393C136.448 16.6321 136.242 17.4129 135.841 18.0969C135.44 18.7808 134.859 19.3419 134.162 19.7193C133.432 20.104 132.62 20.3055 131.795 20.3066C130.97 20.3076 130.157 20.1082 129.426 19.7253C128.736 19.3527 128.161 18.7996 127.761 18.1253C127.355 17.4341 127.145 16.645 127.155 15.8433C127.144 15.057 127.351 14.283 127.752 13.6068C128.154 12.9306 128.734 12.3784 129.43 12.0113C130.162 11.6336 130.974 11.4365 131.798 11.4365C132.622 11.4365 133.434 11.6336 134.166 12.0113L134.162 12.0073ZM130.638 13.6593C130.274 13.8801 129.976 14.1948 129.776 14.5703C129.566 14.9663 129.457 15.4079 129.458 15.8561C129.459 16.3043 129.57 16.7453 129.782 17.1403C129.986 17.515 130.284 17.8307 130.646 18.0573C130.997 18.2795 131.405 18.3961 131.821 18.3933C132.235 18.3969 132.641 18.2802 132.99 18.0573C133.346 17.8316 133.635 17.5151 133.828 17.1403C134.029 16.7417 134.133 16.3017 134.133 15.8553C134.133 15.409 134.029 14.9689 133.828 14.5703C133.637 14.1961 133.347 13.8811 132.99 13.6593C132.64 13.4398 132.234 13.3249 131.821 13.3283C131.403 13.326 130.993 13.4406 130.637 13.6593H130.638Z" fill="white"/>
<path d="M143.86 12.3553C144.167 12.6347 144.407 12.979 144.564 13.3633C144.721 13.7475 144.79 14.1619 144.767 14.5763C144.793 15.0108 144.725 15.4459 144.569 15.8521C144.412 16.2583 144.17 16.6264 143.86 16.9313C143.15 17.5273 142.239 17.8273 141.314 17.7693H139.785V20.1443H137.55V11.5653H141.32C142.235 11.5096 143.138 11.7906 143.86 12.3553ZM142.26 15.6413C142.389 15.5124 142.489 15.3572 142.553 15.1862C142.618 15.0152 142.644 14.8325 142.632 14.6503C142.643 14.4732 142.616 14.2958 142.551 14.1304C142.487 13.9649 142.388 13.8154 142.26 13.6923C141.962 13.4515 141.584 13.3315 141.202 13.3563H139.782V15.9903H141.201C141.585 16.0141 141.965 15.89 142.261 15.6433L142.26 15.6413Z" fill="white"/>
<path d="M147.885 11.5853C148.155 11.7444 148.365 11.9879 148.484 12.2783C148.602 12.5687 148.621 12.8899 148.539 13.1924C148.456 13.4949 148.277 13.7619 148.027 13.9522C147.778 14.1426 147.473 14.2457 147.16 14.2457C146.846 14.2457 146.541 14.1426 146.292 13.9522C146.043 13.7619 145.864 13.4949 145.781 13.1924C145.699 12.8899 145.718 12.5687 145.836 12.2783C145.954 11.9879 146.165 11.7444 146.435 11.5853C146.654 11.4529 146.906 11.3836 147.162 11.3853C147.416 11.3854 147.666 11.4545 147.885 11.5853ZM147.709 13.7753C147.874 13.6784 148.012 13.5407 148.109 13.3753C148.204 13.209 148.254 13.0208 148.254 12.8293C148.254 12.6377 148.204 12.4496 148.109 12.2833C148.013 12.1175 147.876 11.9801 147.709 11.8852C147.543 11.7903 147.355 11.7413 147.164 11.7433C146.969 11.741 146.778 11.7922 146.611 11.8913C146.448 11.9885 146.313 12.1264 146.219 12.2913C146.125 12.4579 146.075 12.6459 146.075 12.8372C146.075 13.0286 146.125 13.2167 146.219 13.3833C146.366 13.6322 146.606 13.8131 146.886 13.8866C147.165 13.9602 147.463 13.9205 147.714 13.7763L147.709 13.7753ZM147.703 12.8483C147.663 12.9226 147.6 12.9817 147.523 13.0163L147.807 13.4572H147.413L147.213 13.0853H146.959V13.4572H146.615V12.1143H147.201C147.35 12.1032 147.498 12.1458 147.619 12.2343C147.668 12.2772 147.707 12.3308 147.732 12.3909C147.757 12.451 147.768 12.5161 147.765 12.5813C147.767 12.6728 147.745 12.7633 147.703 12.8443V12.8483ZM146.959 12.8123H147.199C147.261 12.8162 147.322 12.7958 147.37 12.7553C147.391 12.7349 147.408 12.7101 147.418 12.6826C147.429 12.6551 147.433 12.6256 147.431 12.5963C147.433 12.5669 147.429 12.5375 147.418 12.51C147.408 12.4825 147.391 12.4577 147.37 12.4373C147.321 12.3991 147.26 12.3802 147.199 12.3842H146.959V12.8123Z" fill="white"/>
<path d="M25.781 41.9123H66.116C67.0655 41.8629 67.996 42.1911 68.7044 42.8253C69.4128 43.4595 69.8415 44.3482 69.897 45.2974V81.3973C69.8403 82.3456 69.411 83.233 68.7028 83.8661C67.9945 84.4993 67.0647 84.8268 66.116 84.7773H25.781C24.8323 84.8268 23.9026 84.4993 23.1943 83.8661C22.4861 83.233 22.0568 82.3456 22 81.3973V45.2974C22.0555 44.3482 22.4842 43.4595 23.1926 42.8253C23.901 42.1911 24.8315 41.8629 25.781 41.9123V41.9123Z" fill="#006ED9"/>
<path d="M41.398 58.1071C42.6122 59.573 43.2171 61.4491 43.088 63.3482C43.1279 64.7851 42.8173 66.2101 42.183 67.5001C41.6172 68.6145 40.7261 69.5306 39.628 70.1272C38.4553 70.7439 37.1457 71.0536 35.821 71.0272C35.0874 71.0297 34.3561 70.9441 33.643 70.7722C33.017 70.6298 32.4187 70.3855 31.872 70.0492L33.093 67.6281C33.8887 68.1317 34.8192 68.3801 35.76 68.3402C36.286 68.3672 36.8119 68.2863 37.3055 68.1025C37.7991 67.9187 38.2498 67.6357 38.63 67.2711C39.3875 66.4254 39.795 65.3232 39.77 64.1881C39.2971 64.6304 38.7393 64.9722 38.1305 65.1927C37.5217 65.4132 36.8745 65.508 36.228 65.4712C35.3685 65.4826 34.5181 65.2939 33.744 64.9201C33.0213 64.5744 32.4084 64.0356 31.973 63.3632C31.5318 62.6673 31.3053 61.8569 31.322 61.0332C31.3037 60.1458 31.5517 59.2733 32.034 58.5282C32.5148 57.8051 33.1881 57.2309 33.978 56.8701C34.8365 56.4755 35.7722 56.2774 36.717 56.2902C37.5817 56.2413 38.4469 56.3781 39.2543 56.6916C40.0617 57.005 40.7927 57.4877 41.398 58.1071V58.1071ZM38.721 62.4011C38.9341 62.2077 39.1048 61.9721 39.2223 61.7094C39.3398 61.4466 39.4015 61.1623 39.4036 60.8745C39.4057 60.5866 39.348 60.3015 39.2343 60.0371C39.1206 59.7726 38.9533 59.5347 38.743 59.3382C38.2307 58.9201 37.5801 58.7096 36.92 58.7481C36.2963 58.7207 35.6842 58.9232 35.2 59.3172C34.9803 59.5085 34.8067 59.747 34.692 60.0149C34.5774 60.2828 34.5247 60.5731 34.538 60.8642C34.5253 61.1568 34.5782 61.4485 34.6927 61.718C34.8072 61.9876 34.9806 62.2282 35.2 62.4221C35.7092 62.8021 36.3285 63.0056 36.9638 63.002C37.5992 62.9984 38.2161 62.7879 38.721 62.4022V62.4011Z" fill="white"/>
<path d="M47.71 67.531C47.8942 67.716 48.0382 67.9372 48.1328 68.1805C48.2275 68.4239 48.2707 68.6841 48.2599 68.945C48.2603 69.2197 48.2267 69.4935 48.16 69.76C48.0401 70.1772 47.8904 70.5853 47.712 70.981L46.552 73.912H44.537L45.4369 70.675C45.1073 70.544 44.8273 70.3123 44.637 70.013C44.4364 69.6931 44.3339 69.3215 44.342 68.944C44.331 68.6822 44.3751 68.4211 44.4716 68.1775C44.5681 67.9339 44.7147 67.7133 44.902 67.53C45.09 67.3506 45.3118 67.2104 45.5546 67.1177C45.7974 67.025 46.0562 66.9816 46.316 66.99C46.5727 66.9826 46.8283 67.0266 47.0677 67.1196C47.3071 67.2125 47.5255 67.3524 47.71 67.531V67.531Z" fill="white"/>
<path d="M60.595 68.0911V70.779H49.826V68.6401L55.326 63.4491C55.7938 63.0369 56.1924 62.5524 56.507 62.0141C56.702 61.647 56.8066 61.2387 56.812 60.823C56.8262 60.5739 56.781 60.3251 56.6799 60.0969C56.5789 59.8688 56.425 59.6679 56.231 59.511C55.7313 59.1731 55.1328 59.0122 54.531 59.0541C53.9482 59.0452 53.3707 59.1669 52.841 59.4101C52.3348 59.651 51.8998 60.0193 51.579 60.4791L49.179 58.9321C49.7552 58.0873 50.5503 57.415 51.479 56.987C52.5316 56.5034 53.6799 56.2641 54.838 56.287C55.7901 56.2663 56.7363 56.4427 57.617 56.805C58.3598 57.1105 59.0018 57.6185 59.47 58.271C59.918 58.927 60.1491 59.7069 60.131 60.5011C60.1351 61.2548 59.9679 61.9995 59.642 62.6791C59.1555 63.5596 58.5142 64.3451 57.749 64.998L54.472 68.092L60.595 68.0911Z" fill="white"/>
<path d="M85.615 64.0862V65.8611H78.215V56.3052H85.436V58.0801H80.413V60.1512H84.85V61.8712H80.413V64.0831L85.615 64.0862Z" fill="#006ED9"/>
<path d="M92.0177 65.8601L90.4057 63.6081L88.7417 65.8601H86.4197L89.2467 62.1601L86.5157 58.5161H88.9057L90.4607 60.6581L92.0607 58.5161H94.3267L91.5977 62.1061L94.4367 65.8601H92.0177Z" fill="#006ED9"/>
<path d="M96.8971 65.4852C96.2892 65.1754 95.7789 64.7035 95.4224 64.1217C95.066 63.54 94.8773 62.871 94.8773 62.1887C94.8773 61.5064 95.066 60.8374 95.4224 60.2557C95.7789 59.6739 96.2892 59.202 96.8971 58.8922C97.5502 58.5614 98.2741 58.3949 99.0061 58.4072C99.7124 58.39 100.411 58.5572 101.033 58.8922C101.597 59.1994 102.042 59.6867 102.296 60.2762L100.644 61.1632C100.493 60.8555 100.258 60.5971 99.9654 60.4182C99.673 60.2393 99.3358 60.1475 98.9931 60.1532C98.7383 60.1454 98.4846 60.1897 98.2476 60.2836C98.0106 60.3775 97.7954 60.5189 97.6151 60.6992C97.2625 61.1148 97.0689 61.6422 97.0689 62.1872C97.0689 62.7323 97.2625 63.2596 97.6151 63.6752C97.7952 63.8557 98.0104 63.9973 98.2474 64.0912C98.4845 64.1852 98.7383 64.2294 98.9931 64.2212C99.3364 64.2294 99.6748 64.1383 99.9676 63.959C100.26 63.7796 100.495 63.5197 100.644 63.2102L102.296 64.1102C102.034 64.6901 101.591 65.1692 101.033 65.4752C100.412 65.8133 99.7131 65.9826 99.0061 65.9662C98.2746 65.9786 97.5509 65.8135 96.8971 65.4852V65.4852Z" fill="#006ED9"/>
<path d="M110.801 62.7882H105.245C105.333 63.226 105.588 63.6127 105.955 63.8672C106.366 64.1438 106.853 64.2838 107.348 64.2672C107.695 64.2734 108.039 64.2158 108.365 64.0972C108.674 63.9749 108.955 63.7912 109.191 63.5572L110.324 64.7872C109.938 65.1966 109.466 65.5154 108.942 65.7206C108.418 65.9259 107.855 66.0125 107.293 65.9742C106.532 65.9897 105.778 65.8237 105.093 65.4902C104.484 65.1915 103.972 64.7248 103.619 64.1451C103.268 63.5553 103.088 62.8795 103.099 62.1932C103.089 61.51 103.267 60.8372 103.611 60.2472C103.945 59.6752 104.432 59.2074 105.017 58.8962C105.627 58.5811 106.303 58.4148 106.99 58.411C107.677 58.4071 108.355 58.5658 108.969 58.8742C109.545 59.177 110.021 59.6395 110.341 60.2062C110.683 60.8211 110.855 61.5158 110.841 62.2192C110.841 62.2422 110.828 62.4342 110.801 62.7882ZM105.818 60.4272C105.484 60.7114 105.269 61.1115 105.218 61.5472H108.834C108.78 61.1147 108.566 60.7181 108.234 60.4352C107.898 60.155 107.471 60.0067 107.034 60.0182C106.593 60.0037 106.161 60.1489 105.818 60.4272V60.4272Z" fill="#006ED9"/>
<path d="M112.48 55.7312H114.609V65.8562H112.48V55.7312Z" fill="#006ED9"/>
<path d="M116.807 55.7312H118.937V65.8562H116.807V55.7312Z" fill="#006ED9"/>
<path d="M128.285 62.7882H122.73C122.818 63.2257 123.072 63.6122 123.439 63.8672C123.85 64.1435 124.337 64.2834 124.832 64.2672C125.178 64.2736 125.523 64.216 125.849 64.0972C126.158 63.9752 126.439 63.7915 126.675 63.5572L127.809 64.7872C127.423 65.1966 126.95 65.5154 126.426 65.7206C125.902 65.9259 125.339 66.0125 124.778 65.9742C124.016 65.9897 123.262 65.8237 122.578 65.4902C121.968 65.1918 121.456 64.725 121.103 64.1451C120.752 63.5552 120.572 62.8794 120.584 62.1932C120.574 61.5101 120.751 60.8373 121.095 60.2472C121.429 59.6754 121.916 59.2078 122.501 58.8962C123.111 58.581 123.788 58.4148 124.475 58.411C125.162 58.4071 125.84 58.5658 126.454 58.8742C127.029 59.1774 127.505 59.6398 127.825 60.2062C128.167 60.8209 128.34 61.5157 128.325 62.2192C128.328 62.2422 128.316 62.4342 128.285 62.7882ZM123.302 60.4272C122.968 60.712 122.754 61.1118 122.702 61.5472H126.32C126.264 61.1151 126.05 60.7189 125.72 60.4352C125.384 60.155 124.957 60.0067 124.52 60.0182C124.079 60.004 123.647 60.1492 123.305 60.4272H123.302Z" fill="#006ED9"/>
<path d="M136.631 59.2262C136.929 59.5527 137.157 59.9366 137.302 60.3545C137.446 60.7724 137.503 61.2153 137.47 61.6562V65.8561H135.341V61.9802C135.376 61.5146 135.24 61.0523 134.958 60.6802C134.817 60.5327 134.646 60.4178 134.456 60.3435C134.266 60.2692 134.062 60.2374 133.858 60.2502C133.621 60.2388 133.384 60.2774 133.162 60.3635C132.941 60.4497 132.74 60.5814 132.573 60.7502C132.227 61.1628 132.056 61.6942 132.096 62.2311V65.8622H129.967V58.5182H132V59.3782C132.291 59.0624 132.651 58.8175 133.051 58.6622C133.49 58.4896 133.958 58.4037 134.429 58.4092C134.832 58.3914 135.235 58.4546 135.613 58.5949C135.991 58.7352 136.337 58.9499 136.631 59.2262V59.2262Z" fill="#006ED9"/>
<path d="M144.355 65.5041C144.123 65.6698 143.861 65.7881 143.584 65.8521C143.269 65.931 142.946 65.9699 142.621 65.9681C141.884 66.0158 141.158 65.776 140.595 65.2991C140.343 65.0408 140.15 64.7321 140.026 64.3934C139.902 64.0547 139.852 63.6937 139.878 63.3341V60.3181H138.745V58.6801H139.878V56.8911H142.007V58.6801H143.837V60.3181H142.007V63.3071C141.99 63.5679 142.076 63.8249 142.245 64.0241C142.334 64.1115 142.44 64.1792 142.557 64.2228C142.673 64.2664 142.798 64.2849 142.922 64.2771C143.232 64.2858 143.535 64.1893 143.783 64.0031L144.355 65.5041Z" fill="#006ED9"/>
<path d="M82.3275 43.8864C82.7397 44.062 83.0912 44.3547 83.3384 44.7284C83.5705 45.1191 83.6929 45.5651 83.6929 46.0194C83.6929 46.4738 83.5705 46.9198 83.3384 47.3104C83.0933 47.6862 82.7412 47.9799 82.3275 48.1535C81.8381 48.3586 81.3109 48.4581 80.7805 48.4454H79.4294V50.2944H77.8784V43.5944H80.7784C81.3097 43.5798 81.838 43.6793 82.3275 43.8864V43.8864ZM81.7574 46.8804C81.8731 46.7685 81.9651 46.6345 82.028 46.4863C82.0908 46.3382 82.1231 46.1789 82.1231 46.018C82.1231 45.857 82.0908 45.6977 82.028 45.5495C81.9651 45.4013 81.8731 45.2673 81.7574 45.1554C81.4489 44.9345 81.0729 44.8284 80.6945 44.8554H79.4294V47.1845H80.6945C81.0734 47.2103 81.4495 47.1028 81.7574 46.8804V46.8804Z" fill="black"/>
<path d="M89.0671 50.2944L87.7742 48.4274H86.3472V50.2944H84.7952V43.5944H87.6951C88.2263 43.5827 88.7538 43.685 89.2421 43.8944C89.6541 44.0703 90.0057 44.363 90.2532 44.7364C90.4961 45.1231 90.6192 45.5729 90.6072 46.0294C90.6255 46.4819 90.5025 46.9289 90.2552 47.3083C90.0079 47.6877 89.6486 47.9806 89.2272 48.1464L90.7272 50.3014L89.0671 50.2944ZM88.6741 45.1554C88.3655 44.9348 87.9896 44.8287 87.6111 44.8554H86.3461V47.1924H87.6111C87.9902 47.2182 88.3664 47.1102 88.6741 46.8874C88.7893 46.7747 88.8809 46.6402 88.9434 46.4916C89.0059 46.3431 89.0381 46.1835 89.0381 46.0224C89.0381 45.8612 89.0059 45.7018 88.9434 45.5532C88.8809 45.4047 88.7893 45.2701 88.6741 45.1574V45.1554Z" fill="black"/>
<path d="M97.0272 49.0482V50.2932H91.8352V43.5933H96.9032V44.8383H93.3782V46.2932H96.4902V47.5002H93.3782V49.0522L97.0272 49.0482Z" fill="black"/>
<path d="M104.365 50.2943L104.355 46.2712L102.382 49.5862H101.682L99.7181 46.3582V50.2952H98.2632V43.5952H99.5472L102.057 47.7612L104.529 43.5952H105.803L105.822 50.2952L104.365 50.2943Z" fill="black"/>
<path d="M107.412 43.5894H108.964V50.2894H107.412V43.5894Z" fill="black"/>
<path d="M111.297 49.6133C111.017 49.3088 110.801 48.9506 110.664 48.5604C110.526 48.1702 110.469 47.7562 110.497 47.3434V43.5894H112.049V47.2894C112.049 48.4894 112.547 49.0894 113.543 49.0894C113.748 49.1029 113.954 49.0709 114.146 48.9955C114.338 48.9201 114.511 48.8033 114.653 48.6534C114.941 48.2597 115.078 47.7749 115.038 47.2883V43.5884H116.571V47.3423C116.551 47.9443 116.36 48.5281 116.021 49.0256C115.681 49.5232 115.207 49.9138 114.654 50.1519C114.101 50.39 113.492 50.4657 112.897 50.3702C112.302 50.2746 111.747 50.0118 111.297 49.6124V49.6133Z" fill="black"/>
<path d="M124.205 50.2943L124.195 46.2712L122.222 49.5862H121.522L119.558 46.3582V50.2952H118.102V43.5952H119.386L121.896 47.7612L124.368 43.5952H125.642L125.661 50.2952L124.205 50.2943Z" fill="black"/>
<path d="M82.0135 78.7622C82.2607 78.9565 82.4577 79.2072 82.5881 79.4932C82.7186 79.7792 82.7788 80.0923 82.7635 80.4062C82.7699 80.818 82.6634 81.2237 82.4556 81.5792C82.2364 81.9365 81.9153 82.22 81.5336 82.3932C81.0596 82.6055 80.5437 82.7081 80.0245 82.6932C79.5011 82.6961 78.9812 82.6071 78.4885 82.4302C78.0524 82.2835 77.6539 82.0424 77.3215 81.7242L77.6976 81.1112C77.9803 81.3886 78.3183 81.6032 78.6896 81.7412C79.1126 81.9052 79.5629 81.9874 80.0165 81.9832C80.5335 82.0158 81.0458 81.8676 81.4656 81.5642C81.632 81.4297 81.7647 81.2583 81.8534 81.0635C81.9421 80.8688 81.9843 80.656 81.9766 80.4422C81.9891 80.2137 81.9427 79.9859 81.8419 79.7805C81.741 79.575 81.5891 79.399 81.4006 79.2692C80.8033 78.953 80.1281 78.8142 79.4545 78.8692H77.8495L78.2375 75.0852H82.3666V75.7762H78.9166L78.6575 78.1762H79.6276C80.4654 78.1071 81.303 78.3128 82.0135 78.7622V78.7622Z" fill="#939393"/>
<path d="M85.7368 75.0811V82.6251H84.9619V75.772H83.1829V75.0811H85.7368Z" fill="#939393"/>
<path d="M93.8518 80.642H92.3428V82.6251H91.5668V80.642H87.3088V80.082L91.3088 75.082H92.1708L88.3118 79.9531H91.5888V78.207H92.3428V79.9531H93.8518V80.642Z" fill="#939393"/>
<path d="M99.2338 77.2042C99.6429 76.9982 100.097 76.8985 100.555 76.9142V77.6562L100.372 77.6452C100.113 77.6311 99.8536 77.673 99.612 77.7679C99.3704 77.8628 99.1521 78.0085 98.9719 78.1952C98.6119 78.6251 98.4304 79.1765 98.4648 79.7362V82.6242H97.6998V76.9552H98.4329V78.0662C98.5992 77.6995 98.8804 77.397 99.2338 77.2042Z" fill="#939393"/>
<path d="M106.719 80.0272H101.978C101.99 80.2988 102.055 80.5653 102.172 80.8108C102.288 81.0563 102.453 81.2758 102.656 81.4562C103.087 81.8261 103.641 82.0204 104.208 82.0002C104.541 82.0045 104.871 81.9402 105.178 81.8112C105.472 81.6873 105.734 81.4982 105.943 81.2582L106.374 81.7582C106.121 82.0613 105.797 82.2975 105.43 82.4462C104.982 82.6229 104.502 82.7023 104.02 82.6792C103.539 82.6561 103.069 82.531 102.639 82.3123C102.2 82.0736 101.836 81.7168 101.589 81.2822C101.334 80.8287 101.204 80.3156 101.212 79.7952C101.204 79.2767 101.328 78.7647 101.574 78.3082C101.803 77.8817 102.147 77.5272 102.565 77.2842C102.998 77.0448 103.485 76.9192 103.979 76.9192C104.474 76.9192 104.961 77.0448 105.393 77.2842C105.808 77.5267 106.148 77.8794 106.374 78.3032C106.618 78.7623 106.74 79.2757 106.73 79.7952L106.719 80.0272ZM102.608 78.0932C102.233 78.451 102.008 78.9384 101.978 79.4562H105.997C105.967 78.9387 105.742 78.4519 105.367 78.0932C104.993 77.7431 104.495 77.5552 103.982 77.5703C103.473 77.5559 102.979 77.744 102.608 78.0932V78.0932Z" fill="#939393"/>
<path d="M112.848 76.9561L110.325 82.6251H109.538L107.027 76.9561H107.827L109.951 81.7841L112.094 76.9561H112.848Z" fill="#939393"/>
<path d="M113.822 75.5552C113.77 75.5052 113.728 75.445 113.701 75.3785C113.673 75.3119 113.659 75.2403 113.66 75.1681C113.66 75.0974 113.674 75.0274 113.702 74.9624C113.73 74.8974 113.77 74.8388 113.822 74.7901C113.874 74.7371 113.936 74.6954 114.005 74.6675C114.074 74.6396 114.148 74.6263 114.222 74.6282C114.295 74.6261 114.369 74.6388 114.438 74.6656C114.506 74.6924 114.569 74.7327 114.622 74.7842C114.673 74.8314 114.714 74.8889 114.742 74.953C114.77 75.0171 114.784 75.0862 114.784 75.1561C114.784 75.2672 114.751 75.3758 114.689 75.4682C114.628 75.5607 114.54 75.6328 114.437 75.6756C114.335 75.7183 114.222 75.7298 114.113 75.7085C114.004 75.6873 113.904 75.6343 113.825 75.5561L113.822 75.5552ZM113.833 76.9551H114.598V82.6241H113.833V76.9551Z" fill="#939393"/>
<path d="M121.57 80.0271H116.828C116.84 80.2987 116.906 80.5652 117.022 80.8107C117.139 81.0562 117.304 81.2757 117.507 81.4561C117.938 81.826 118.492 82.0202 119.059 82.0001C119.392 82.0043 119.722 81.94 120.029 81.8111C120.323 81.6872 120.585 81.4981 120.794 81.2581L121.225 81.7581C120.972 82.0604 120.649 82.2966 120.283 82.4461C119.835 82.6227 119.355 82.7021 118.873 82.679C118.392 82.6559 117.922 82.5309 117.492 82.3121C117.053 82.0734 116.689 81.7166 116.441 81.2821C116.186 80.8286 116.056 80.3154 116.064 79.7951C116.056 79.2769 116.18 78.7651 116.424 78.3081C116.654 77.8821 116.997 77.5278 117.415 77.2841C117.847 77.0376 118.337 76.9115 118.833 76.9191C119.328 76.9107 119.816 77.0368 120.244 77.2841C120.66 77.5261 121 77.8789 121.226 78.3031C121.47 78.7622 121.592 79.2756 121.582 79.7951L121.57 80.0271ZM117.458 78.093C117.084 78.4518 116.859 78.9386 116.828 79.4561H120.848C120.818 78.9382 120.593 78.451 120.217 78.093C119.837 77.7559 119.346 77.5698 118.838 77.5698C118.33 77.5698 117.839 77.7559 117.458 78.093V78.093Z" fill="#939393"/>
<path d="M131.259 76.9561L129.115 82.6251H128.393L126.604 77.98L124.815 82.6251H124.093L121.958 76.9561H122.692L124.469 81.7731L126.291 76.9561H126.948L128.758 81.7731L130.559 76.9561H131.259Z" fill="#939393"/>
<path d="M132.45 82.4801C132.092 82.38 131.756 82.2101 131.463 81.9801L131.808 81.3802C132.078 81.5836 132.381 81.7389 132.703 81.8392C133.065 81.9578 133.444 82.0176 133.824 82.0162C134.222 82.0442 134.619 81.96 134.971 81.7732C135.089 81.7025 135.185 81.6018 135.25 81.4816C135.316 81.3614 135.348 81.2259 135.343 81.0892C135.349 80.9977 135.334 80.9062 135.299 80.8215C135.264 80.7367 135.211 80.6607 135.143 80.5992C134.993 80.4724 134.816 80.38 134.626 80.3282C134.353 80.2546 134.076 80.1955 133.796 80.1512C133.421 80.0858 133.051 79.9979 132.686 79.8882C132.411 79.8009 132.164 79.6426 131.969 79.4292C131.758 79.1807 131.651 78.8606 131.669 78.5351C131.666 78.3076 131.719 78.0828 131.822 77.8802C131.926 77.6775 132.077 77.5032 132.263 77.3722C132.748 77.0439 133.328 76.8847 133.912 76.9192C134.284 76.9194 134.654 76.9681 135.012 77.0641C135.333 77.1411 135.639 77.2702 135.918 77.4461L135.584 78.0602C135.091 77.7293 134.508 77.5598 133.914 77.5752C133.53 77.5501 133.147 77.6403 132.814 77.8341C132.699 77.9059 132.604 78.006 132.539 78.1249C132.474 78.2438 132.44 78.3775 132.441 78.5132C132.437 78.6094 132.454 78.7054 132.49 78.7947C132.527 78.8839 132.582 78.9642 132.652 79.0301C132.801 79.1649 132.98 79.2628 133.173 79.3161C133.458 79.3932 133.746 79.4559 134.036 79.5041C134.404 79.5696 134.767 79.6564 135.124 79.7641C135.393 79.8466 135.634 79.9988 135.824 80.2052C136.029 80.4442 136.133 80.7532 136.114 81.0672C136.121 81.3004 136.067 81.5313 135.959 81.738C135.851 81.9446 135.691 82.1203 135.496 82.2481C134.982 82.5663 134.381 82.7185 133.777 82.6841C133.327 82.6847 132.88 82.6159 132.45 82.4801V82.4801Z" fill="#939393"/>
</svg>
