<svg width="170" height="94" viewBox="0 0 170 94" fill="none" xmlns="http://www.w3.org/2000/svg">
<rect width="170" height="94" rx="7" fill="white"/>
<path d="M55.5913 27.7881L68.136 27.7881L68.136 30.1234L63.1967 30.1234L63.1967 43.2881L60.4893 43.2881L60.4893 30.1234L55.5707 30.1234L55.5913 27.7881ZM67.5987 32.0661L69.9133 32.0661L69.9133 34.2361L69.9547 34.2361C70.0373 33.9261 70.182 33.6367 70.3887 33.3474C70.5953 33.0581 70.8433 32.7894 71.1533 32.5621C71.4427 32.3141 71.7733 32.1281 72.1453 31.9834C72.4967 31.8387 72.8687 31.7561 73.2407 31.7561C73.53 31.7561 73.7367 31.7767 73.84 31.7767C73.9433 31.7974 74.0673 31.8181 74.1707 31.8181L74.1707 34.1948C74.0053 34.1534 73.8193 34.1327 73.6333 34.1121C73.4473 34.0914 73.282 34.0708 73.096 34.0708C72.6827 34.0708 72.29 34.1534 71.918 34.3187C71.546 34.4841 71.236 34.7321 70.9467 35.0421C70.678 35.3727 70.4507 35.7654 70.2853 36.2407C70.12 36.7161 70.0373 37.2741 70.0373 37.8941L70.0373 43.2261L67.5573 43.2261L67.5987 32.0661ZM85.5373 43.2881L83.0987 43.2881L83.0987 41.7174L83.0573 41.7174C82.7473 42.2961 82.2927 42.7301 81.6933 43.0814C81.094 43.4327 80.474 43.5981 79.854 43.5981C78.3867 43.5981 77.312 43.2467 76.6507 42.5027C75.9893 41.7794 75.6587 40.6634 75.6587 39.1961L75.6587 32.0661L78.1387 32.0661L78.1387 38.9481C78.1387 39.9401 78.3247 40.6427 78.7173 41.0354C79.0893 41.4487 79.6267 41.6554 80.3087 41.6554C80.8253 41.6554 81.2593 41.5727 81.6107 41.4074C81.962 41.2421 82.2513 41.0354 82.458 40.7667C82.6853 40.4981 82.83 40.1674 82.9333 39.7954C83.0367 39.4234 83.078 39.0101 83.078 38.5761L83.078 32.0661L85.558 32.0661L85.558 43.2881L85.5373 43.2881ZM89.7533 39.6921C89.836 40.4154 90.1047 40.9114 90.58 41.2214C91.0553 41.5107 91.634 41.6554 92.2953 41.6554C92.5227 41.6554 92.7913 41.6347 93.0807 41.5934C93.37 41.5521 93.6593 41.4901 93.9073 41.3867C94.176 41.2834 94.3827 41.1387 94.548 40.9321C94.7133 40.7254 94.796 40.4774 94.7753 40.1674C94.7547 39.8574 94.6513 39.5887 94.424 39.3821C94.1967 39.1754 93.928 39.0307 93.5973 38.8861C93.2667 38.7621 92.874 38.6587 92.44 38.5761C92.006 38.4934 91.572 38.3901 91.1173 38.2867C90.6627 38.1834 90.208 38.0594 89.774 37.9148C89.34 37.7701 88.968 37.5841 88.6167 37.3154C88.286 37.0674 87.9967 36.7574 87.8107 36.3648C87.604 35.9721 87.5007 35.5174 87.5007 34.9387C87.5007 34.3187 87.6453 33.8227 87.9553 33.4094C88.2447 32.9961 88.6373 32.6654 89.092 32.4174C89.5467 32.1694 90.0633 31.9834 90.6213 31.8801C91.1793 31.7768 91.7167 31.7354 92.2127 31.7354C92.7913 31.7354 93.3493 31.7974 93.866 31.9214C94.3827 32.0454 94.8787 32.2314 95.292 32.5208C95.726 32.7894 96.0773 33.1614 96.346 33.5954C96.6353 34.0294 96.8007 34.5668 96.8833 35.1868L94.3 35.1868C94.176 34.5874 93.9073 34.1948 93.494 33.9881C93.06 33.7814 92.5847 33.6781 92.0267 33.6781C91.8613 33.6781 91.634 33.6987 91.4067 33.7194C91.1587 33.7607 90.952 33.8021 90.7247 33.8848C90.518 33.9674 90.332 34.0914 90.1873 34.2361C90.0427 34.3807 89.96 34.5874 89.96 34.8354C89.96 35.1454 90.0633 35.3727 90.27 35.5587C90.4767 35.7447 90.7453 35.8894 91.0967 36.0341C91.4273 36.1581 91.82 36.2614 92.254 36.3441C92.688 36.4268 93.1427 36.5301 93.5973 36.6334C94.052 36.7367 94.486 36.8607 94.92 37.0054C95.354 37.1501 95.7467 37.3361 96.0773 37.6048C96.408 37.8528 96.6973 38.1628 96.904 38.5348C97.1107 38.9068 97.214 39.3821 97.214 39.9194C97.214 40.5807 97.0693 41.1387 96.7593 41.6141C96.4493 42.0687 96.0567 42.4614 95.5813 42.7507C95.106 43.0401 94.548 43.2467 93.9693 43.3914C93.37 43.5154 92.7913 43.5981 92.2127 43.5981C91.51 43.5981 90.8487 43.5154 90.2493 43.3501C89.65 43.1847 89.1127 42.9367 88.6787 42.6267C88.2447 42.2961 87.8933 41.9034 87.6453 41.4074C87.3973 40.9321 87.2527 40.3534 87.232 39.6714L89.7327 39.6714L89.7327 39.6921L89.7533 39.6921ZM97.9167 32.0661L99.7973 32.0661L99.7973 28.6768L102.277 28.6768L102.277 32.0454L104.509 32.0454L104.509 33.8848L102.277 33.8848L102.277 39.8781C102.277 40.1468 102.298 40.3534 102.319 40.5601C102.339 40.7461 102.401 40.9114 102.463 41.0354C102.546 41.1594 102.67 41.2628 102.815 41.3248C102.98 41.3868 103.187 41.4281 103.476 41.4281C103.641 41.4281 103.827 41.4281 103.993 41.4074C104.158 41.3867 104.344 41.3661 104.509 41.3248L104.509 43.2467C104.241 43.2881 103.972 43.3087 103.703 43.3294C103.435 43.3707 103.187 43.3707 102.897 43.3707C102.236 43.3707 101.719 43.3087 101.327 43.1847C100.934 43.0607 100.624 42.8747 100.397 42.6474C100.169 42.3994 100.025 42.1101 99.942 41.7587C99.8593 41.4074 99.818 40.9734 99.7973 40.5187L99.7973 33.9054L97.9167 33.9054L97.9167 32.0248L97.9167 32.0661ZM106.245 32.0661L108.581 32.0661L108.581 33.5954L108.622 33.5954C108.973 32.9341 109.449 32.4794 110.069 32.1901C110.689 31.9008 111.35 31.7561 112.094 31.7561C112.983 31.7561 113.747 31.9008 114.409 32.2314C115.07 32.5414 115.607 32.9548 116.041 33.5128C116.475 34.0501 116.806 34.6908 117.013 35.4141C117.219 36.1374 117.343 36.9227 117.343 37.7287C117.343 38.4934 117.24 39.2167 117.054 39.9194C116.847 40.6221 116.558 41.2627 116.165 41.8001C115.773 42.3374 115.277 42.7714 114.657 43.1021C114.037 43.4327 113.334 43.5981 112.507 43.5981C112.156 43.5981 111.784 43.5568 111.433 43.4948C111.081 43.4328 110.73 43.3294 110.399 43.1848C110.069 43.0401 109.759 42.8541 109.49 42.6267C109.201 42.3994 108.973 42.1308 108.787 41.8414L108.746 41.8414L108.746 47.4421L106.266 47.4421L106.266 32.0661L106.245 32.0661ZM114.905 37.6874C114.905 37.1914 114.843 36.6954 114.698 36.2201C114.574 35.7448 114.367 35.3314 114.099 34.9594C113.83 34.5874 113.499 34.2981 113.127 34.0708C112.735 33.8434 112.28 33.7401 111.784 33.7401C110.751 33.7401 109.965 34.0914 109.428 34.8148C108.911 35.5381 108.643 36.5094 108.643 37.7081C108.643 38.2868 108.705 38.8034 108.849 39.2787C108.994 39.7541 109.18 40.1674 109.469 40.5187C109.738 40.8701 110.069 41.1387 110.461 41.3454C110.854 41.5521 111.288 41.6554 111.805 41.6554C112.383 41.6554 112.838 41.5314 113.231 41.3041C113.623 41.0768 113.933 40.7667 114.202 40.4154C114.45 40.0434 114.636 39.6301 114.739 39.1548C114.843 38.6588 114.905 38.1834 114.905 37.6874V37.6874ZM119.265 27.7881L121.745 27.7881L121.745 30.1234L119.265 30.1234L119.265 27.7881ZM119.265 32.0661L121.745 32.0661L121.745 43.2881L119.265 43.2881L119.265 32.0661ZM123.957 27.7881L126.437 27.7881L126.437 43.2881L123.957 43.2881L123.957 27.7881ZM134.001 43.5981C133.112 43.5981 132.306 43.4534 131.603 43.1434C130.901 42.8334 130.322 42.4408 129.826 41.9241C129.351 41.4074 128.979 40.7668 128.731 40.0434C128.483 39.3201 128.338 38.5141 128.338 37.6668C128.338 36.8194 128.462 36.0341 128.731 35.3108C128.979 34.5874 129.351 33.9674 129.826 33.4301C130.301 32.9134 130.901 32.5001 131.603 32.2108C132.306 31.9214 133.112 31.7561 134.001 31.7561C134.889 31.7561 135.695 31.9008 136.398 32.2108C137.101 32.5001 137.679 32.9134 138.175 33.4301C138.651 33.9468 139.023 34.5874 139.271 35.3108C139.519 36.0341 139.663 36.8194 139.663 37.6668C139.663 38.5348 139.539 39.3201 139.271 40.0434C139.002 40.7668 138.651 41.3868 138.175 41.9241C137.7 42.4408 137.101 42.8541 136.398 43.1434C135.695 43.4328 134.91 43.5981 134.001 43.5981ZM134.001 41.6348C134.538 41.6348 135.034 41.5108 135.427 41.2834C135.84 41.0561 136.15 40.7461 136.419 40.3741C136.687 40.0021 136.873 39.5681 136.997 39.1134C137.121 38.6381 137.183 38.1628 137.183 37.6668C137.183 37.1914 137.121 36.7161 136.997 36.2408C136.873 35.7654 136.687 35.3521 136.419 34.9801C136.15 34.6081 135.819 34.3188 135.427 34.0914C135.013 33.8641 134.538 33.7401 134.001 33.7401C133.463 33.7401 132.967 33.8641 132.575 34.0914C132.161 34.3188 131.851 34.6288 131.583 34.9801C131.314 35.3521 131.128 35.7654 131.004 36.2408C130.88 36.7161 130.818 37.1914 130.818 37.6668C130.818 38.1628 130.88 38.6381 131.004 39.1134C131.128 39.5888 131.314 40.0021 131.583 40.3741C131.851 40.7461 132.182 41.0561 132.575 41.2834C132.988 41.5314 133.463 41.6348 134.001 41.6348ZM140.407 32.0661L142.288 32.0661L142.288 28.6768L144.768 28.6768L144.768 32.0454L147 32.0454L147 33.8848L144.768 33.8848L144.768 39.8781C144.768 40.1468 144.789 40.3534 144.809 40.5601C144.83 40.7461 144.892 40.9114 144.954 41.0354C145.037 41.1594 145.161 41.2628 145.305 41.3248C145.471 41.3868 145.677 41.4281 145.967 41.4281C146.132 41.4281 146.318 41.4281 146.483 41.4074C146.649 41.3868 146.835 41.3661 147 41.3248L147 43.2468C146.731 43.2881 146.463 43.3087 146.194 43.3294C145.925 43.3707 145.677 43.3708 145.388 43.3708C144.727 43.3708 144.21 43.3088 143.817 43.1848C143.425 43.0608 143.115 42.8748 142.887 42.6474C142.66 42.3994 142.515 42.1101 142.433 41.7587C142.35 41.4074 142.309 40.9734 142.288 40.5187L142.288 33.9054L140.407 33.9054L140.407 32.0248L140.407 32.0661Z" fill="black"/>
<path d="M52.698 27.788L41.352 27.788L37.8593 17L34.346 27.788L23 27.7673L32.176 34.4427L28.6627 45.2307L37.8387 38.5553L47.0147 45.2307L43.522 34.4427L52.698 27.788Z" fill="#00B67A"/>
<path d="M44.3072 36.8813L43.5219 34.4426L37.8593 38.5553L44.3072 36.8813Z" fill="#005128"/>
<g clip-path="url(#clip0_761_2361)">
<path d="M22 52.0063H45.4375V75.9936H22V52.0063ZM47.3906 52.0063H70.8281V75.9936H47.3906V52.0063ZM72.7812 52.0063H96.2188V75.9936H72.7812V52.0063ZM98.1719 52.0063H121.609V75.9936H98.1719V52.0063ZM123.562 52.0063H147V75.9936H123.562V52.0063Z" fill="#00B67A"/>
<path d="M33.7188 68.1727L37.2832 67.2482L38.7725 71.9457L33.7188 68.1727ZM41.9219 62.101H35.6475L33.7188 56.0542L31.79 62.101H25.5156L30.5938 65.849L28.665 71.8957L33.7432 68.1477L36.8682 65.849L41.9219 62.101ZM59.1094 68.1727L62.6738 67.2482L64.1631 71.9457L59.1094 68.1727ZM67.3125 62.101H61.0381L59.1094 56.0542L57.1807 62.101H50.9063L55.9844 65.849L54.0557 71.8957L59.1338 68.1477L62.2588 65.849L67.3125 62.101ZM84.5 68.1727L88.0645 67.2482L89.5537 71.9457L84.5 68.1727ZM92.7031 62.101H86.4287L84.5 56.0542L82.5713 62.101H76.2969L81.375 65.849L79.4463 71.8957L84.5244 68.1477L87.6494 65.849L92.7031 62.101ZM109.891 68.1727L113.455 67.2482L114.944 71.9457L109.891 68.1727ZM118.094 62.101H111.819L109.891 56.0542L107.962 62.101H101.688L106.766 65.849L104.837 71.8957L109.915 68.1477L113.04 65.849L118.094 62.101ZM135.281 68.1727L138.846 67.2482L140.335 71.9457L135.281 68.1727ZM143.484 62.101H137.21L135.281 56.0542L133.353 62.101H127.078L132.156 65.849L130.228 71.8957L135.306 68.1477L138.431 65.849L143.484 62.101Z" fill="white"/>
</g>
<defs>
<clipPath id="clip0_761_2361">
<rect width="125" height="24" fill="white" transform="translate(22 52)"/>
</clipPath>
</defs>
</svg>
